<?xml version="1.0" encoding="UTF-8" standalone="no"?>
<svg width="26px" height="17px" viewBox="0 0 26 17" version="1.1" xmlns="http://www.w3.org/2000/svg" xmlns:xlink="http://www.w3.org/1999/xlink">
    <!-- Generator: Sketch 3.8.3 (29802) - http://www.bohemiancoding.com/sketch -->
    <title>Behance</title>
    <desc>Created with Sketch.</desc>
    <defs></defs>
    <g id="Web-Design" stroke="none" stroke-width="1" fill="none" fill-rule="evenodd">
        <g id="Design-V3" transform="translate(-1128.000000, -281.000000)" stroke="#B3B2B1" fill="#B3B2B1">
            <g id="About" transform="translate(250.000000, 200.000000)">
                <g id="Social" transform="translate(879.000000, 34.000000)">
                    <g id="Behance" transform="translate(0.000000, 48.000000)">
                        <path d="M8.6426,7 L0.9996,7 L0.9996,1 L8.6426,1 C10.2906,1 11.6316,2.346 11.6316,4 C11.6316,5.654 10.2906,7 8.6426,7 M11.6316,11 C11.6316,12.654 10.2906,14 8.6426,14 L0.9996,14 L0.9996,8 L8.6426,8 C10.2906,8 11.6316,9.346 11.6316,11 M12.6316,4 C12.6316,1.794 10.8426,0 8.6426,0 L0.4996,0 C0.2236,0 -0.0004,0.224 -0.0004,0.5 L-0.0004,7.5 L-0.0004,14.5 C-0.0004,14.776 0.2236,15 0.4996,15 L8.6426,15 C10.8426,15 12.6316,13.206 12.6316,11 C12.6316,9.484 11.7766,8.179 10.5336,7.5 C11.7766,6.822 12.6316,5.516 12.6316,4" id="Fill-54"></path>
                        <path d="M14.0278,9 C14.2778,6.753 16.1878,5 18.4998,5 C20.8128,5 22.7228,6.753 22.9718,9 L14.0278,9 Z M23.9998,9.5 C23.9998,6.467 21.5328,4 18.4998,4 C15.4668,4 12.9998,6.467 12.9998,9.5 C12.9998,12.533 15.4668,15 18.4998,15 C20.7208,15 22.7128,13.677 23.5718,11.627 C23.6788,11.373 23.5598,11.08 23.3048,10.973 C23.0518,10.865 22.7568,10.985 22.6508,11.24 C21.9468,12.917 20.3178,14 18.4998,14 C16.1878,14 14.2778,12.248 14.0278,10 L23.4998,10 C23.7768,10 23.9998,9.776 23.9998,9.5 L23.9998,9.5 Z" id="Fill-55"></path>
                        <path d="M16.5,2 L20.5,2 C20.776,2 21,1.776 21,1.5 C21,1.224 20.776,1 20.5,1 L16.5,1 C16.224,1 16,1.224 16,1.5 C16,1.776 16.224,2 16.5,2" id="Fill-56"></path>
                    </g>
                </g>
            </g>
        </g>
    </g>
</svg>