<?xml version="1.0" encoding="UTF-8" standalone="no"?>
<svg width="22px" height="21px" viewBox="0 0 22 21" version="1.1" xmlns="http://www.w3.org/2000/svg" xmlns:xlink="http://www.w3.org/1999/xlink">
    <!-- Generator: Sketch 3.8.3 (29802) - http://www.bohemiancoding.com/sketch -->
    <title>Linkedin</title>
    <desc>Created with Sketch.</desc>
    <defs></defs>
    <g id="Web-Design" stroke="none" stroke-width="1" fill="none" fill-rule="evenodd">
        <g id="Design-V3" transform="translate(-1130.000000, -364.000000)" fill="#B3B2B1">
            <g id="About" transform="translate(250.000000, 200.000000)">
                <g id="Social" transform="translate(879.000000, 34.000000)">
                    <g id="Linkedin" transform="translate(1.000000, 130.000000)">
                        <path d="M14.5273,11.5 C13.4223,11.5 12.5273,12.396 12.5273,13.5 L12.5273,20.5 L7.5273,20.5 C7.5273,20.5 7.5863,8.5 7.5273,7.5 L12.5273,7.5 L12.5273,8.985 C12.5273,8.985 14.0753,7.542 16.4663,7.542 C19.4273,7.542 21.5273,9.685 21.5273,13.846 L21.5273,20.5 L16.5273,20.5 L16.5273,13.5 C16.5273,12.396 15.6323,11.5 14.5273,11.5 L14.5273,11.5 Z M3.0173,5.5 L2.9883,5.5 C1.4773,5.5 0.5003,4.318 0.5003,3.019 C0.5003,1.69 1.5073,0.607 3.0473,0.607 C4.5883,0.607 5.5353,1.725 5.5653,3.054 C5.5653,4.354 4.5883,5.5 3.0173,5.5 L3.0173,5.5 Z M5.5273,20.5 L0.5273,20.5 L0.5273,7.5 L5.5273,7.5 L5.5273,20.5 Z" id="Fill-263"></path>
                    </g>
                </g>
            </g>
        </g>
    </g>
</svg>